<svg width="644" height="127" viewBox="0 0 644 127" fill="none" xmlns="http://www.w3.org/2000/svg">
<g filter="url(#filter0_d_19_77423)">
<path d="M86 73.8585V79.9556C86 81.3246 87.3486 82.2874 88.6484 81.8578C104.965 76.4658 116.281 74.0532 127.809 75.1813L133.398 119L138.764 60.0561L125.35 67.8411L141 40.4822L156.65 67.8411L143.236 60.0561L148.602 119L154.191 75.1813C166.06 74.0198 177.704 76.6117 194.813 82.3443C195.394 82.5389 196 82.111 196 81.5014V71.377C196 70.1465 195.361 69.0033 194.31 68.3539L153.197 42.945C152.271 42.3727 151.657 41.4082 151.533 40.3307C148.972 18.134 147.927 2.66395 141.671 0.22243L141 0L140.329 0.22243C134.275 2.58484 133.101 17.1451 130.711 38.1944C130.436 40.6215 129.057 42.788 126.979 44.0722L89.7942 67.0532C87.4356 68.5109 86 71.0858 86 73.8585Z" fill="url(#paint0_linear_19_77423)"/>
</g>
<g filter="url(#filter1_d_19_77423)">
<path d="M8.26195 13.54C8.26195 11.2067 9.14862 9.19999 10.922 7.51999C12.7886 5.83999 15.0286 4.99999 17.642 4.99999H81.062C81.062 10.6 80.082 14.7067 78.122 17.32C76.2553 19.84 73.1753 21.1 68.882 21.1H27.022V44.76H64.262C64.262 50.36 63.282 54.4667 61.322 57.08C59.4553 59.6 56.3753 60.86 52.082 60.86H27.022V90.96C27.022 95.6267 25.5286 99.0333 22.542 101.18C19.5553 103.233 14.7953 104.26 8.26195 104.26V13.54Z" fill="#1D1028"/>
<path d="M242.83 104.26C234.43 104.26 227.103 103.233 220.85 101.18C214.596 99.1267 209.79 96.2333 206.43 92.5C203.163 88.6733 201.53 84.24 201.53 79.2C201.53 71.5467 206.71 67.72 217.07 67.72C217.443 74.8133 219.823 80.18 224.21 83.82C228.69 87.46 234.943 89.28 242.97 89.28C249.596 89.28 254.73 88.16 258.37 85.92C262.01 83.5867 263.83 80.3667 263.83 76.26C263.83 73.5533 263.13 71.36 261.73 69.68C260.33 67.9067 257.95 66.3667 254.59 65.06C251.23 63.66 246.33 62.26 239.89 60.86C230.743 58.7133 223.51 56.3333 218.19 53.72C212.963 51.1067 209.183 47.98 206.85 44.34C204.516 40.6067 203.35 35.9867 203.35 30.48C203.35 25.16 204.89 20.4933 207.97 16.48C211.143 12.4667 215.576 9.34 221.27 7.09999C227.056 4.85999 233.683 3.73999 241.15 3.73999C248.336 3.73999 254.73 4.71999 260.33 6.68C266.023 8.54666 270.456 11.2067 273.63 14.66C276.896 18.1133 278.53 22.08 278.53 26.56C278.53 33.4667 273.536 37.06 263.55 37.34C262.99 30.9 260.936 26.1867 257.39 23.2C253.843 20.2133 248.43 18.72 241.15 18.72C234.896 18.72 230.09 19.7467 226.73 21.8C223.37 23.8533 221.69 26.7467 221.69 30.48C221.69 33.0933 222.343 35.2867 223.65 37.06C224.956 38.74 227.15 40.2333 230.23 41.54C233.31 42.7533 237.696 44.0133 243.39 45.32C253.003 47.4667 260.61 49.8933 266.21 52.6C271.81 55.2133 275.87 58.4333 278.39 62.26C280.91 65.9933 282.17 70.6133 282.17 76.12C282.17 81.8133 280.536 86.8067 277.27 91.1C274.096 95.3 269.523 98.5667 263.55 100.9C257.67 103.14 250.763 104.26 242.83 104.26ZM324.369 21.24H290.629C290.629 10.4133 295.529 4.99999 305.329 4.99999H376.869C376.869 15.8267 371.922 21.24 362.029 21.24H343.129V90.4C343.129 94.88 341.542 98.3333 338.369 100.76C335.195 103.093 330.529 104.26 324.369 104.26V21.24ZM394.494 13.54C394.494 11.2067 395.381 9.19999 397.154 7.51999C399.021 5.83999 401.261 4.99999 403.874 4.99999H467.294C467.294 10.6 466.314 14.7067 464.354 17.32C462.488 19.84 459.408 21.1 455.114 21.1H413.254V44.76H450.494C450.494 50.36 449.514 54.4667 447.554 57.08C445.688 59.6 442.608 60.86 438.314 60.86H413.254V90.96C413.254 95.6267 411.761 99.0333 408.774 101.18C405.788 103.233 401.028 104.26 394.494 104.26V13.54ZM495.89 103C493.184 103 490.85 102.02 488.89 100.06C487.024 98.1 486.09 95.7667 486.09 93.06V17.6C486.09 12.9333 487.63 9.48 490.71 7.24C493.79 4.90666 498.504 3.73999 504.85 3.73999V86.76H542.65C547.037 86.76 550.35 88.16 552.59 90.96C554.83 93.6667 555.95 97.68 555.95 103H495.89ZM582.256 67.86L547.676 5.69999C548.516 5.13999 549.87 4.67333 551.736 4.29999C553.603 3.92666 555.283 3.73999 556.776 3.73999C560.23 3.73999 563.123 4.43999 565.456 5.84C567.79 7.24 569.75 9.43333 571.336 12.42L591.216 49.8L587.436 57.78L588.836 58.34L611.936 12.42C614.83 6.63333 619.683 3.73999 626.496 3.73999C627.99 3.73999 629.67 3.92666 631.536 4.29999C633.403 4.67333 634.756 5.13999 635.596 5.69999L601.016 68V90.4C601.016 94.88 599.383 98.3333 596.116 100.76C592.943 103.093 588.323 104.26 582.256 104.26V67.86Z" fill="#1D1028"/>
</g>
<defs>
<filter id="filter0_d_19_77423" x="86" y="0" width="118" height="127" filterUnits="userSpaceOnUse" color-interpolation-filters="sRGB">
<feFlood flood-opacity="0" result="BackgroundImageFix"/>
<feColorMatrix in="SourceAlpha" type="matrix" values="0 0 0 0 0 0 0 0 0 0 0 0 0 0 0 0 0 0 127 0" result="hardAlpha"/>
<feOffset dx="4" dy="4"/>
<feGaussianBlur stdDeviation="2"/>
<feComposite in2="hardAlpha" operator="out"/>
<feColorMatrix type="matrix" values="0 0 0 0 0.498039 0 0 0 0 0.337255 0 0 0 0 0.85098 0 0 0 0.5 0"/>
<feBlend mode="normal" in2="BackgroundImageFix" result="effect1_dropShadow_19_77423"/>
<feBlend mode="normal" in="SourceGraphic" in2="effect1_dropShadow_19_77423" result="shape"/>
</filter>
<filter id="filter1_d_19_77423" x="8.26172" y="3.73999" width="635.335" height="112.52" filterUnits="userSpaceOnUse" color-interpolation-filters="sRGB">
<feFlood flood-opacity="0" result="BackgroundImageFix"/>
<feColorMatrix in="SourceAlpha" type="matrix" values="0 0 0 0 0 0 0 0 0 0 0 0 0 0 0 0 0 0 127 0" result="hardAlpha"/>
<feOffset dx="4" dy="8"/>
<feGaussianBlur stdDeviation="2"/>
<feComposite in2="hardAlpha" operator="out"/>
<feColorMatrix type="matrix" values="0 0 0 0 0 0 0 0 0 0 0 0 0 0 0 0 0 0 0.25 0"/>
<feBlend mode="normal" in2="BackgroundImageFix" result="effect1_dropShadow_19_77423"/>
<feBlend mode="normal" in="SourceGraphic" in2="effect1_dropShadow_19_77423" result="shape"/>
</filter>
<linearGradient id="paint0_linear_19_77423" x1="106.569" y1="22.243" x2="161.141" y2="119.241" gradientUnits="userSpaceOnUse">
<stop stop-color="#7F56D9"/>
<stop offset="1" stop-color="#32009E"/>
</linearGradient>
</defs>
</svg>
